<svg width="90" height="18" viewBox="0 0 90 18" xmlns="http://www.w3.org/2000/svg"><title>起点中文网 copy</title><path d="M12.587 17.086c-5.907.187-9.188-1.36-9.845-4.641-.515 1.969-1.36 3.492-2.531 4.57-.14.094-.211.024-.211-.21.844-1.5 1.266-3.4 1.266-5.696v-2.04c0-.187.07-.28.21-.28.235 0 .587.046 1.055.14.516.094.868.164 1.055.21.14.048.164.141.07.282l-.21.211c-.188.14-.282.281-.282.422a21.28 21.28 0 0 1-.351 1.969 5.82 5.82 0 0 0 1.406 1.758V7.874H.492l-.351-.492c.187 0 .375.023.562.07h3.305V4.5H1.406l-.351-.492c.234 0 .445.023.633.07h2.32v-2.25l-.07-.844c.047-.047.093-.07.14-.07.891 0 1.594.094 2.11.281.094.047.094.14 0 .281-.188.141-.352.258-.492.352v2.25h.773c.469-.61.774-.96.914-1.055.094-.093.164-.093.211 0 .703.516 1.125.938 1.266 1.266.047.047 0 .117-.14.211H5.695v2.953H6.82a4.11 4.11 0 0 0 .351-.422l.633-.633c.047-.093.094-.093.14 0 .704.516 1.126.938 1.266 1.266.047.047 0 .117-.14.211H6.469c0 .047-.023.07-.07.07l-.07.07-.141.141c-.188.141-.281.235-.281.282v2.601h.773c.469-.61.773-.96.914-1.054a.54.54 0 0 1 .211-.07c.61.468 1.031.89 1.266 1.265 0 .14-.047.21-.14.21H5.906v3.306a8.07 8.07 0 0 0 2.812.492h4.852c1.031-.047 2.227-.188 3.586-.422.094.094.094.188 0 .281-.703.47-1.102 1.125-1.195 1.97-.047.046-.094.07-.14.07a1.775 1.775 0 0 1-.704 0h-2.531zm2.812-8.65c-.656.61-1.242.68-1.758.212v-.633H11.11v3.797c0 .469.328.703.984.703h1.688c.984.281 1.805-.68 2.461-2.883.14-.094.258-.094.352 0-.375 1.172-.422 1.992-.141 2.461.047.094.117.211.21.352.095.187.142.328.142.422-.141.796-.891 1.195-2.25 1.195H11.18c-1.172.047-1.734-.399-1.687-1.336V6.96c.047-.14.14-.187.28-.14.33.14.728.421 1.196.843h2.672V3.725h-3.164c-.234 0-.469.024-.703.07l-.422-.562 1.125.14h2.742a5.06 5.06 0 0 1 .774-.632c.14-.047.234-.07.281-.07.375.14.797.375 1.266.703.187.094.305.164.351.21.141.095.141.212 0 .352a4.119 4.119 0 0 1-.562.493v2.953c.047.656.07 1.008.07 1.055zm7.594-1.546v4.36h7.102V6.89h-7.102zm0 5.273c-.047.422-.398.704-1.054.844-.563.047-.844-.164-.844-.633V5.765c.656.14 1.312.398 1.969.773h1.968V1.475l-.07-.914.07-.07h.282c.984.094 1.64.21 1.969.352.093.046.117.117.07.21l-.281.282-.141.14v2.25h3.586c.14-.14.328-.375.563-.703.28-.375.492-.633.632-.773h.282l.14.07c1.125.75 1.758 1.242 1.899 1.477 0 .14-.07.234-.211.281h-6.891v2.461h2.813c.328-.422.586-.68.773-.773a.624.624 0 0 1 .281-.07c.516.14 1.149.468 1.899.984v.281l-.492.563v4.43c-.094.374-.516.585-1.266.632-.563 0-.844-.21-.844-.633v-.351h-7.102v.562zm-2.46 1.055c.702 1.64.656 2.953-.141 3.938-.516.515-1.055.61-1.618.281-.515-.469-.562-1.008-.14-1.617l.21-.14.423-.212c.656-.562.984-1.312.984-2.25.047-.14.14-.14.281 0zm2.742 3.164c0-.093.023-.28.07-.562-.047.187-.024.14.07-.14.235-.657.14-1.407-.281-2.25.047-.142.117-.188.21-.142 1.454.844 2.157 1.829 2.11 2.954-.047.562-.422.89-1.125.984-.703 0-1.054-.281-1.054-.844zm3.797-3.304c1.734.843 2.625 1.804 2.672 2.882.047.704-.282 1.149-.985 1.336-.703.047-1.125-.28-1.265-.984-.047-.14-.047-.352 0-.633v-.281c.093-.516-.141-1.195-.704-2.04-.046-.234.047-.327.282-.28zm4.148-.07c1.97.421 3.188 1.195 3.657 2.32.328.703.187 1.265-.422 1.687-.75.375-1.336.211-1.758-.492-.047-.094-.094-.375-.14-.844 0 .094-.024.024-.071-.21-.281-.985-.774-1.712-1.477-2.18-.093-.188-.023-.282.211-.282zm14.063-7.595v4.149h4.5V5.413h-4.5zm-2.109 4.149V5.413h-4.57v4.149h4.57zm2.18 7.313c.047.421-.305.703-1.055.843-.844 0-1.219-.21-1.125-.632V9.913h-4.57v1.125c-.985.938-1.665 1.008-2.04.211l.07-5.836V4.147c.376-.187 1.008.118 1.9.914h4.64V1.475c0-.14-.023-.351-.07-.632-.094-.329-.118-.516-.07-.563 1.218 0 2.132.21 2.742.633 0 .094-.094.21-.282.351-.14.094-.21.164-.21.211v3.586h4.148c.375-.468.633-.796.774-.984 0-.047.07-.047.21 0h.07c.798.328 1.5.727 2.11 1.195.094.047.094.118 0 .211-.187.188-.445.352-.773.493l.21 4.71c-.14.329-.609.54-1.406.634-.562-.047-.843-.258-.843-.633v-.774h-4.5l.07 6.962zm18.634-3.868c1.921 1.313 4.312 2.016 7.172 2.11.093.047.117.117.07.21-.937.188-1.57.915-1.898 2.18-.047.141-.141.188-.282.141-2.297-.516-4.406-1.617-6.328-3.305-2.11 1.922-4.922 3.024-8.438 3.305-.188 0-.188-.047 0-.14 3.14-.657 5.602-2.11 7.383-4.36-1.688-2.157-2.648-4.805-2.883-7.946h-2.953c-.375 0-.75.024-1.125.07l-.422-.492c.234 0 .445.024.633.07h12.657c.422-.656.867-1.195 1.336-1.617.093-.093.164-.093.21 0 1.032.703 1.735 1.243 2.11 1.618.14.187.117.304-.07.351h-5.133c.375.14.726.328 1.054.563.094.047.094.14 0 .28l-.14.142c-.235.187-.375.328-.422.421-.422 2.579-1.266 4.712-2.531 6.4zm-4.782-7.805c.469 2.766 1.594 4.993 3.375 6.68 1.078-1.969 1.688-4.195 1.828-6.68h-5.203zM60.05.491c2.016.281 3.187.96 3.516 2.04.14.655-.094 1.194-.704 1.616-.656.329-1.148.211-1.476-.351-.094-.188-.164-.516-.211-.985-.14-.984-.54-1.71-1.195-2.18-.094-.046-.07-.093.07-.14zm28.407 14.626c.141 1.265-.632 2.039-2.32 2.32-.187-.047-.305-.117-.352-.21-.046-1.032-.726-1.665-2.039-1.9-.093-.234-.07-.398.07-.492 1.829.375 2.673.118 2.532-.773V2.249h-11.25v14.133c-.047.375-.422.61-1.126.704-.609 0-.914-.188-.914-.563l.14-12.587V2.6l-.07-1.617.07-.07c.142.047.376.14.704.281.703.188 1.172.375 1.406.563.047 0 .07.023.07.07h10.759c.375-.469.633-.774.774-.914 0-.047.07-.047.21 0h.07c.657.328 1.266.703 1.829 1.125v.281l-.633.492.07 12.306zM75.801 5.343c.703.422 1.336.89 1.898 1.406.047-.281.094-.68.14-1.195.141-.938.235-1.641.282-2.11.047-.187.14-.281.281-.281.938.281 1.711.562 2.32.844.094.094.094.21 0 .351 0 .047-.116.118-.35.211-.282.14-.423.235-.423.282-.094.328-.258.82-.492 1.476a21.867 21.867 0 0 1-.563 1.547c.657.703 1.149 1.43 1.477 2.18.328.797.235 1.43-.281 1.898-.656.422-1.172.258-1.547-.492-.14-.281-.234-.68-.281-1.195a.54.54 0 0 0-.07-.211c0-.094-.024-.164-.071-.211-.61 1.547-1.43 3.14-2.461 4.781-.14.047-.234-.023-.281-.21a30.291 30.291 0 0 0 2.039-6.329c-.422-.703-1.008-1.547-1.758-2.531 0-.14.047-.211.14-.211zm4.71-.422c.657.422 1.313 1.008 1.97 1.758.28-1.032.445-2.04.492-3.024.047-.187.14-.281.281-.281 1.172.328 1.992.61 2.461.844.047.047.047.14 0 .281v.07l-.773.422a18.838 18.838 0 0 1-1.196 3.164c.891 1.125 1.524 2.086 1.899 2.883.328.797.234 1.43-.281 1.899-.657.422-1.172.258-1.547-.492l-.282-.844c0-.188-.023-.328-.07-.422a9.067 9.067 0 0 0-.492-1.477c-1.172 2.063-2.625 3.82-4.36 5.274-.234 0-.328-.07-.281-.21 1.781-2.11 3.07-4.407 3.867-6.892-.562-1.078-1.195-1.992-1.898-2.742 0-.14.07-.211.21-.211z" fill="#33373D" fill-rule="evenodd"/></svg>